<svg width="339" height="85" viewBox="0 0 339 85" fill="none" xmlns="http://www.w3.org/2000/svg">
<path d="M21.6875 84.75C14.1562 84.75 8.71875 82.875 5.375 79.125C2.0625 75.375 0.40625 69.4062 0.40625 61.2188V53.1562H16.7188V63.4688C16.7188 65.375 17 66.875 17.5625 67.9688C18.1562 69.0312 19.1719 69.5625 20.6094 69.5625C22.1094 69.5625 23.1406 69.125 23.7031 68.25C24.2969 67.375 24.5938 65.9375 24.5938 63.9375C24.5938 61.4062 24.3438 59.2969 23.8438 57.6094C23.3438 55.8906 22.4688 54.2656 21.2188 52.7344C20 51.1719 18.2969 49.3594 16.1094 47.2969L8.70312 40.2656C3.17188 35.0469 0.40625 29.0781 0.40625 22.3594C0.40625 15.3281 2.03125 9.96875 5.28125 6.28125C8.5625 2.59375 13.2969 0.75 19.4844 0.75C27.0469 0.75 32.4062 2.76562 35.5625 6.79688C38.75 10.8281 40.3438 16.9531 40.3438 25.1719H23.5625V19.5C23.5625 18.375 23.2344 17.5 22.5781 16.875C21.9531 16.25 21.0938 15.9375 20 15.9375C18.6875 15.9375 17.7188 16.3125 17.0938 17.0625C16.5 17.7812 16.2031 18.7187 16.2031 19.875C16.2031 21.0313 16.5156 22.2812 17.1406 23.625C17.7656 24.9688 19 26.5156 20.8438 28.2656L30.3594 37.4062C32.2656 39.2188 34.0156 41.1406 35.6094 43.1719C37.2031 45.1719 38.4844 47.5156 39.4531 50.2031C40.4219 52.8594 40.9062 56.1094 40.9062 59.9531C40.9062 67.7031 39.4688 73.7812 36.5938 78.1875C33.75 82.5625 28.7812 84.75 21.6875 84.75ZM46.4375 84V10.875H62.8438V36.8438H70.625V10.875H87.0312V84H70.625V52.4531H62.8438V84H46.4375ZM92.0938 84L100.062 10.875H128.047L135.875 84H120.266L119.188 70.6875H109.062L108.125 84H92.0938ZM113.469 24L110.422 57.5156H117.641L114.219 24H113.469ZM140.938 84V10.875H165.781C170 10.875 173.219 11.7656 175.438 13.5469C177.688 15.3281 179.219 17.7812 180.031 20.9062C180.844 24 181.25 27.5469 181.25 31.5469C181.25 36.5781 180.562 40.5625 179.188 43.5C177.812 46.4375 175.594 48.4531 172.531 49.5469C175.312 49.9844 177.281 51.2344 178.438 53.2969C179.625 55.3594 180.219 58.0781 180.219 61.4531V84H163.859V60.375C163.859 57.9688 163.359 56.4844 162.359 55.9219C161.391 55.3281 159.812 55.0312 157.625 55.0312V84H140.938ZM157.719 40.7344H161.703C163.984 40.7344 165.125 38.2969 165.125 33.4219C165.125 30.4844 164.875 28.5469 164.375 27.6094C163.875 26.6406 162.938 26.1562 161.562 26.1562H157.719V40.7344ZM186.688 84V10.875H219.688V26.8125H203.469V38.9062H219.031V54.4219H203.469V67.9219H220.766V84H186.688ZM226.25 84V1.5H251.375L258.312 51.7969L265.203 1.5H290.562V84H275.469V24.5625L266 84H251.188L241.156 24.5625V84H226.25ZM297.875 84V10.875H320.609C326.547 10.875 331 12.5312 333.969 15.8438C336.969 19.125 338.469 23.9375 338.469 30.2812V59.5312C338.469 67.3438 337.109 73.375 334.391 77.625C331.672 81.875 326.891 84 320.047 84H297.875ZM314.469 69.4219H317.328C320.359 69.4219 321.875 67.9531 321.875 65.0156V31.8281C321.875 29.0781 321.5 27.3125 320.75 26.5312C320.031 25.7188 318.547 25.3125 316.297 25.3125H314.469V69.4219Z" fill="#4B43E3"/>
</svg>
